<?xml version="1.0" encoding="UTF-8"?>
<svg xmlns="http://www.w3.org/2000/svg" version="1.1" viewBox="0 0 2500 2500">
  <defs>
    <style>
      .cls-1 {
        fill: #99a1bf;
      }

      .cls-1, .cls-2 {
        stroke-width: 0px;
      }

      .cls-2 {
        fill: #000;
      }

      .cls-3 {
        fill: none;
        stroke: #000;
        stroke-miterlimit: 10;
        stroke-width: 68px;
      }

      .cls-4 {
        display: none;
      }
    </style>
  </defs>
  <g id="Layer_2" data-name="Layer 2" class="cls-4">
    <rect class="cls-1" width="2500" height="2500"/>
  </g>
  <g id="Layer_1" data-name="Layer 1">
    <path class="cls-2" d="M557.5,360.6c-21.2,31.9-40.7,65-59.9,98.1s-21.1,36.8-31.2,55.4-8.1,15.3-11.9,23-3.2,6.1-4.4,9.3c-2.8,7.5,8.7-9.8,1,0s-6.1,11.8-8.7,17.9c-48.6,116.2-67.9,246.2-53.9,371.5,14,126,61.4,242.9,106.1,360.4s43.1,115.7,58.5,175.5,14.6,64,19.4,96.5.5,3.3.7,5,1,7.4.6,4.1.3,2.5.3,2.4c.3,2.2.6,4.4.8,6.6,1.1,8.8,2.1,17.7,2.9,26.6,1.6,16.6,3,33.3,4,50,8.1,134.3-.6,269.5-5.2,403.8-.6,17.4-1.2,34.7-1.8,52.1s14.9,32.2,31.5,31.5,30.9-13.8,31.5-31.5c2.4-68.6,4.8-137.2,7.1-205.8,2.2-66.6,4.1-133.3,2.2-199.9-1.9-67.4-7.9-134.9-20.5-201.2-11.7-61.4-30.4-121.2-51.6-179.9-41.7-115.2-93-228.1-116.2-349.1s-2.6-14.3-3.8-21.4-1.1-7.2-1.7-10.8-1-7.2-.5-3.6-.7-5.4-.6-5.1c-1.8-15-3.1-30.1-4-45.2-1.7-31.2-1.4-62.6.9-93.8.5-7.3,1.2-14.6,1.9-21.8s.8-7.3,1.2-10.9.5-4.1.8-6.2.6-4.4.1-.9c2.3-15.5,4.9-30.9,8-46.3,6.2-30.1,14.3-59.9,24.2-89s5.2-14.8,7.9-22.1,6.8-14.5,8.6-21.8.5-.2-.1.3c-9,6.5-.6.2,1.2-2.9s1.1-2.6,1.7-3.8c1.4-3.2,3-6.3,4.5-9.4,8.5-17.1,17.7-33.8,27.1-50.5,20.5-36.4,41.9-72.4,64.2-107.8,3.7-5.9,7.5-11.8,11.4-17.7,9.2-13.7,3.1-35.5-11.3-43.1s-33.3-3.4-43.1,11.3h0Z"/>
    <path class="cls-2" d="M888.7,2247c79.9-105.9,138.8-227.6,174.3-355.4,36.5-131.7,47.1-269.4,32.2-405.1-16.5-150.1-58.1-295.3-97.4-440.7-38.3-141.7-74-284.5-77.4-430.9-3-132,20.5-265.8,89-379.1,9.3-15.4,19.5-30.3,30.3-44.8s2.2-35.2-11.3-43.1c-16.1-9.4-32.9-2.4-43.1,11.3-83.9,112.1-120.7,252.9-127.2,391.1-6.8,147.1,22.4,293.8,58.7,435.6,36.9,144.5,81.9,287.2,106.2,434.6,11.3,68.6,17.5,140.1,15.7,211.2-1.6,66.7-8.8,124.7-23,189-28.5,128.8-78.6,246-153.1,355.1-9.1,13.4-18.6,26.5-28.4,39.4-10.3,13.6-2.2,35.2,11.3,43.1,16.1,9.4,32.8,2.3,43.1-11.3h0Z"/>
    <path class="cls-2" d="M1489.7,172.7c-54,140.4-108.2,281.6-140.7,428.9-32.2,146.1-42.7,298.9-11.4,446.1s106.6,263.6,154.3,395.7c49.7,137.5,56.6,282.5,39.4,427.4-15.5,130.8-50.3,264-87.3,391.8-4.5,15.4-9,30.8-13.7,46.2-4.9,16.3,5.9,34.3,22,38.7s33.8-5.7,38.7-22c38.9-128.2,73.4-258.8,94.5-391.3,23.3-146.6,26.4-298.5-12.4-442.8-37-137.7-115.3-259-157.3-393.6-42.9-137.5-41.9-285.8-16.7-426.2,26.4-147,77.2-288.1,130.3-427.3,7-18.3,14-36.5,21-54.8,6.1-15.9-6.7-34.6-22-38.7s-32.6,6.1-38.7,22h0Z"/>
    <path class="cls-2" d="M1838,340.4c-44.3,117.5-46.2,245.6-28,368.5,18.2,122.9,59.1,240.9,100.1,357.7,41.6,118.4,84.1,237.3,105.4,361.4,1.2,7.1,2.3,14.1,3.4,21.2s1.1,7.6,1.7,11.4c-.1-.7-.5-3.9,0-.2s.7,5.4,1,8.2c1.9,15.2,3.3,30.5,4.4,45.8,2.2,31.1,2.6,62.3,1,93.5-.8,15.9-2.2,31.7-4.1,47.5,0,0-.7,5.4-.3,2.3s-.3,2.2-.3,2.3c-.5,3.8-1.1,7.5-1.7,11.3-1.3,8-2.7,16-4.2,24-5.8,30.4-13.3,60.4-21.3,90.3-15,55.7-32.2,111-44.6,167.4-7.8,35.5-15.3,71.1-21.9,106.8s-2.2,11.9-3.1,18c-2.3,16.2,4,34.6,22,38.7s36.2-4.6,38.7-22c5-34.7,13.1-69.2,20.4-103.5,10.4-48.7,23.5-96.6,37-144.6,17.3-61.3,33.5-122.7,41.7-186,7.9-61.4,7.1-123.7,0-185.2-14.6-127.1-52.8-248.9-94.8-369.2-41-117.4-84.9-234.5-109.8-356.7-3-14.7-5.7-29.5-8.1-44.4-1.2-7.4-2.3-14.9-3.3-22.3-.5-3.7,0-.3,0,.4-.3-2.1-.5-4.3-.8-6.4-.5-3.7-.9-7.5-1.3-11.2-3.4-30.4-5.3-61-5.4-91.6s2.1-60.6,5.3-90.9c.4-3.7,0-.2,0,.5.3-2.1.6-4.2.9-6.3.5-3.7,1.1-7.3,1.7-11,1.2-7.3,2.6-14.6,4-21.9,3.1-15.1,6.7-30,11-44.8s8.8-28.3,14.1-42.1-6.5-35.2-22-38.7-32.5,5.5-38.7,22h0Z"/>
    <circle class="cls-3" cx="1250.3" cy="1248.3" r="1098.8"/>
  </g>
</svg>